<svg width="256" height="256" viewBox="0 0 256 256" fill="none" xmlns="http://www.w3.org/2000/svg">
<path d="M8.85986 79.4657C11.1799 100.01 25.4919 115.786 44.4359 123.274" stroke="#FBC9A0" stroke-width="2"/>
<path d="M44.436 123.274C42.9 125.519 41.8839 127.447 41.3879 129.058C39.4786 135.212 40.4066 140.695 44.172 145.506C45.6173 147.356 47.4707 148.991 49.732 150.41" stroke="#FFEFDD" stroke-width="2"/>
<path d="M49.7319 150.41C55.3799 168.146 68.1159 181.69 84.0439 190.442C85.4359 191.21 88.0279 191.77 91.8199 192.122" stroke="#F7BF9A" stroke-width="2"/>
<path d="M91.8203 192.122C83.6763 194.415 76.1483 197.938 69.2363 202.69" stroke="#FED0A1" stroke-width="2"/>
<path d="M69.2357 202.69L64.2037 205.802C63.5157 206.228 63.4544 206.732 64.0197 207.314C85.2197 229.202 110.71 238.844 140.492 236.242C163.02 234.274 182.732 224.146 197.524 206.882C197.71 206.663 197.676 206.487 197.42 206.354L190.532 202.802" stroke="#E8EEEE" stroke-width="2"/>
<path d="M190.532 202.802C183.796 198.343 176.58 195.034 168.884 192.874C168.714 192.826 168.62 192.711 168.604 192.53C168.599 192.455 168.602 192.378 168.612 192.298" stroke="#FED0A1" stroke-width="2"/>
<path d="M168.612 192.298C170.18 191.908 171.671 191.33 173.084 190.562C189.249 181.756 200.462 168.519 206.724 150.85" stroke="#F7BF9A" stroke-width="2"/>
<path d="M206.724 150.85C207.593 150.135 208.524 149.359 209.516 148.522C217.524 141.802 217.868 131.482 211.972 123.042" stroke="#FFE9D5" stroke-width="2"/>
<path d="M211.972 123.042C230.356 115.394 243.844 100.042 246.58 80.2656" stroke="#FBC9A0" stroke-width="2"/>
<path d="M246.58 80.2658C247.551 67.3164 243.225 57.4151 233.604 50.5618C222.876 42.9138 209.908 44.2018 199.708 52.0338C199.484 52.2044 199.292 52.1724 199.132 51.9378C194.161 44.5351 187.918 38.4551 180.404 33.6978" stroke="#FED0A1" stroke-width="2"/>
<path d="M180.404 33.6977C144.884 9.3537 84.18 13.3937 58.364 50.6497C58.2289 50.8457 58.0212 50.98 57.786 51.0235C57.5508 51.0669 57.3072 51.016 57.108 50.8817C34.028 35.2257 7.36402 53.2257 8.86002 79.4657" stroke="#FED6AA" stroke-width="2"/>
<path d="M180.404 33.6977C179.945 33.6497 179.465 33.4657 178.964 33.1457C178.724 32.9963 178.617 33.0603 178.644 33.3377C178.724 34.4577 174.436 33.8977 173.564 34.0337C157.367 36.5403 141.649 40.807 126.412 46.8337" stroke="#FEA94C" stroke-width="2"/>
<path d="M126.412 46.8337C112.343 52.0924 99.3295 58.4897 87.3721 66.0257C70.7481 76.4897 60.1401 91.2817 55.5481 110.402C54.7561 113.69 54.6121 117.554 54.2041 121.082" stroke="#FBA24C" stroke-width="2"/>
<path d="M54.2041 121.082C52.5881 120.516 51.0121 120.364 49.4761 120.626" stroke="#FFC889" stroke-width="2"/>
<path d="M49.4762 120.626C45.2042 101.858 43.9642 82.9297 50.6282 65.0417" stroke="#F79845" stroke-width="2"/>
<path d="M50.6279 65.0417L52.2519 60.8897C52.3585 60.6124 52.2812 60.5404 52.0199 60.6737C51.7639 60.7964 51.5639 60.8497 51.4199 60.8337C37.0919 59.6657 24.2599 68.8577 24.8119 83.9937C24.8158 84.0941 24.7964 84.194 24.7551 84.2856C24.7138 84.3773 24.6517 84.4584 24.5736 84.5225C24.4956 84.5867 24.4036 84.6322 24.3048 84.6557C24.206 84.6791 24.1031 84.6798 24.0039 84.6577C19.5959 83.6577 16.0439 85.4497 12.4039 87.7137C12.3559 87.7445 12.3018 87.7643 12.2451 87.7716C12.1885 87.779 12.1307 87.7737 12.0759 87.7562C12.021 87.7387 11.9705 87.7093 11.9276 87.6702C11.8848 87.6311 11.8508 87.5832 11.8279 87.5297C10.7239 84.991 10.1239 82.3297 10.0279 79.5457C10.0039 79.0737 9.80387 78.8577 9.41987 78.6577C9.17987 78.535 9.04921 78.607 9.02788 78.8737C9.01188 79.0924 8.95586 79.2897 8.85986 79.4657" stroke="#FBA24C" stroke-width="2"/>
<path d="M142.852 54.3937L142.316 54.4897C142.081 54.527 141.977 54.6657 142.004 54.9057L142.036 55.1777" stroke="#F48A3C" stroke-width="2"/>
<path d="M142.036 55.1777C138.268 55.8097 133.812 58.4977 130.348 60.1777C121.332 64.5537 112.228 67.6977 103.1 71.3697C96.1162 74.1777 91.0842 77.3537 86.7722 82.8337C80.6122 90.6577 74.5402 97.7191 68.5562 104.018C63.0202 109.85 58.8282 116.074 58.7002 123.986C58.6735 125.362 58.5829 126.74 58.4282 128.122" stroke="#FBAC6B" stroke-width="2"/>
<path d="M58.4281 128.122C57.2761 125.45 55.8681 123.103 54.2041 121.082" stroke="#FCBA7F" stroke-width="2"/>
<path d="M135.132 141.514C132.748 145.906 126.692 146.97 124.084 142.218C124.044 142.143 123.981 142.083 123.904 142.048C123.828 142.014 123.741 142.006 123.658 142.026C123.575 142.046 123.501 142.093 123.446 142.159C123.391 142.226 123.36 142.308 123.356 142.394C123.27 145.514 124.889 147.282 128.212 147.698" stroke="#FFD2A8" stroke-width="2"/>
<path d="M128.156 154.674C121.889 154.759 115.551 154.354 109.14 153.458" stroke="#FFEFDD" stroke-width="2"/>
<path d="M109.14 153.458C107.615 153.538 106.777 154.079 106.628 155.082C106.319 157.109 106.671 159.386 107.684 161.914C111.1 170.418 119.476 176.698 128.516 177.21" stroke="#EAA48E" stroke-width="2"/>
<path d="M128.5 189.282C123.711 189.234 119.202 188.762 114.972 187.866" stroke="#FFD2A8" stroke-width="2"/>
<path d="M114.972 187.866C93.0439 183.242 73.8119 170.634 63.7159 150.562C63.5879 150.311 63.3906 150.223 63.1239 150.298C58.7986 151.519 54.3346 151.556 49.7319 150.41" stroke="#F7B079" stroke-width="2"/>
<path d="M50.6279 65.0417C46.9319 66.2524 43.9799 67.6417 41.7719 69.2097C31.3159 76.6577 29.7719 91.6977 36.3079 102.162C38.5879 105.81 43.2039 110.29 46.3159 114.722C46.8332 115.458 46.9319 116.37 46.6119 117.458C46.2492 118.706 46.4359 120.031 47.1719 121.434" stroke="#F48A3C" stroke-width="2"/>
<path d="M47.172 121.434L44.436 123.274" stroke="#FCBA7F" stroke-width="2"/>
<path d="M49.4759 120.626L47.1719 121.434" stroke="#F7B079" stroke-width="2"/>
<path d="M246.58 80.2657C245.556 80.8951 245.129 81.7937 245.3 82.9617C245.337 83.2092 245.318 83.4608 245.244 83.6977L243.516 89.3057C243.473 89.4629 243.374 89.5987 243.237 89.6875C243.101 89.7762 242.936 89.8115 242.775 89.7868C242.614 89.7621 242.468 89.6791 242.364 89.5535C242.26 89.4279 242.206 89.2685 242.212 89.1057V88.8897C242.212 88.6497 242.111 88.4657 241.908 88.3377C238.559 86.1297 234.983 84.3777 231.18 83.0817C230.929 82.9964 230.793 82.8231 230.772 82.5617C229.652 69.0177 218.028 59.8097 204.716 60.7297C204.295 60.7617 204.156 60.9751 204.3 61.3697L205.74 65.2577" stroke="#FB9B43" stroke-width="2"/>
<path d="M205.74 65.2578C211.364 79.7618 212.044 94.1458 209.244 109.466" stroke="#F7913C" stroke-width="2"/>
<path d="M209.244 109.466C208.812 113.316 207.714 116.868 205.948 120.122" stroke="#FB9B43" stroke-width="2"/>
<path d="M205.948 120.122L202.996 120.586" stroke="#FFBB77" stroke-width="2"/>
<path d="M202.996 120.586C203.372 100.45 192.988 82.8657 177.764 70.3218C173.62 66.9084 169.449 63.5377 165.252 60.2097C162.463 58.0017 160.449 55.1991 159.212 51.8017C159.122 51.5597 159.106 51.2962 159.166 51.0444C159.226 50.7925 159.359 50.5634 159.548 50.3857L160.756 49.2417C161.033 48.9751 160.985 48.8871 160.612 48.9777C154.537 50.4231 148.617 52.2284 142.852 54.3937" stroke="#F7913C" stroke-width="2"/>
<path d="M142.852 54.3936C141.641 53.7536 140.551 53.9403 139.58 54.9536C139.399 55.1403 139.308 55.103 139.308 54.8416L139.316 54.6256C139.316 54.2576 139.145 54.143 138.804 54.2816C137.924 54.639 137.127 54.559 136.412 54.0416C136.188 53.8816 136.063 53.663 136.036 53.3856C135.892 52.015 135.217 51.0336 134.012 50.4416C133.783 50.3296 133.625 50.1536 133.54 49.9136C133.049 48.5963 132.073 47.935 130.612 47.9296C130.308 47.9296 130.087 47.7963 129.948 47.5296L129.516 46.6816C129.461 46.5728 129.372 46.4849 129.262 46.4315C129.152 46.3781 129.028 46.362 128.908 46.3856L126.412 46.8336" stroke="#FB9B43" stroke-width="2"/>
<path d="M197.34 128.674C197.495 129.255 197.343 129.586 196.884 129.666C196.771 129.688 196.654 129.668 196.554 129.611C196.454 129.553 196.378 129.462 196.34 129.354C195.068 125.818 194.26 121.826 193.004 118.682C187.588 105.17 178.548 93.3777 168.356 82.9217C160.73 75.0977 151.847 69.143 141.708 65.0577C139.228 64.0577 133.116 66.0497 127.78 67.7697" stroke="#FFCC9F" stroke-width="2"/>
<path d="M127.78 67.7697C118.489 70.223 109.567 73.2576 101.012 76.8736C98.82 77.8016 96.4761 79.3216 95.0201 80.8736C90.7641 85.4123 86.4974 89.943 82.2201 94.4656C71.5561 105.738 59.3001 111.754 59.3321 129.322C59.3321 129.706 59.1827 129.778 58.8841 129.538C58.4307 129.186 58.2787 128.714 58.4281 128.122" stroke="#FFD2A8" stroke-width="2"/>
<path d="M202.996 120.586C200.868 122.788 198.983 125.484 197.34 128.674" stroke="#F7AA70" stroke-width="2"/>
<path d="M197.34 128.674C197.111 127.81 196.972 126.89 196.924 125.914C196.452 115.794 191.356 104.802 185.628 95.8417C173.964 77.6177 162.012 63.7937 142.036 55.1777" stroke="#F7A264" stroke-width="2"/>
<path d="M206.724 150.85C202.164 151.692 197.82 151.436 193.692 150.082C193.442 150.002 193.25 150.071 193.116 150.29C192.252 151.687 191.42 153.106 190.62 154.546C180.58 172.61 163.716 183.01 143.492 187.722" stroke="#F7AA70" stroke-width="2"/>
<path d="M143.492 187.722C138.548 188.698 133.551 189.218 128.5 189.282" stroke="#FFCC9F" stroke-width="2"/>
<path d="M128.5 189.282C127.679 185.02 127.684 180.996 128.516 177.21" stroke="#FFDAB4" stroke-width="2"/>
<path d="M128.516 177.21C140.516 175.626 147.729 169.151 150.156 157.786C150.652 155.442 149.956 153.722 147.268 153.93" stroke="#EA9E86" stroke-width="2"/>
<path d="M147.268 153.93L128.156 154.674" stroke="#FFE9D5" stroke-width="2"/>
<path d="M128.156 154.674C128.77 152.247 128.788 149.922 128.212 147.698" stroke="#FFDAB4" stroke-width="2"/>
<path d="M128.212 147.698C133.108 147.916 135.415 145.855 135.132 141.514" stroke="#FFCC9F" stroke-width="2"/>
<path d="M135.132 141.514C135.132 138.17 130.444 136.498 128.124 134.698C127.9 134.522 127.788 134.29 127.788 134.002L127.78 67.7697" stroke="#FFDAB4" stroke-width="2"/>
<path d="M168.612 192.298C168.172 192.538 159.692 190.642 158.276 190.522C158.014 190.495 157.838 190.607 157.748 190.858C153.62 202.082 143.124 210.93 130.804 210.682C116.644 210.399 106.212 204.143 99.5078 191.914C98.6518 190.346 93.2278 191.842 91.8198 192.122" stroke="#F7913C" stroke-width="2"/>
<path d="M114.972 187.866L106.7 189.138C106.563 189.158 106.434 189.212 106.323 189.295C106.213 189.378 106.124 189.487 106.066 189.612C106.008 189.737 105.983 189.875 105.991 190.013C106 190.151 106.043 190.285 106.116 190.402C110.836 198.034 122.188 201.73 130.596 201.994C140.447 202.303 147.97 198.458 153.164 190.458C153.196 190.41 153.216 190.355 153.222 190.297C153.227 190.239 153.219 190.181 153.197 190.127C153.175 190.073 153.14 190.024 153.095 189.986C153.051 189.947 152.998 189.92 152.94 189.906L143.492 187.722" stroke="#F7A264" stroke-width="2"/>
<path d="M147.268 153.93C137.692 162.938 118.58 161.882 109.14 153.458" stroke="#EAB3AF" stroke-width="2"/>
<path d="M211.972 123.042L205.948 120.122" stroke="#FCB477" stroke-width="2"/>
<path d="M209.244 109.466C209.628 109.871 210.065 110.154 210.556 110.314C210.801 110.394 211.025 110.354 211.228 110.194C217.436 105.266 221.892 99.6178 223.124 91.8418C225.116 79.2418 217.98 69.0898 205.74 65.2578" stroke="#F48A3C" stroke-width="2"/>
<path d="M190.532 202.802C173.388 217.906 150.684 224.426 128.204 223.93C107.452 223.474 84.7398 217.378 69.2358 202.69" stroke="#E8C091" stroke-width="2"/>
<path d="M78.3642 36.6177C75.1722 40.3377 78.5962 44.1377 82.5642 44.3297C96.1002 45.0017 111.436 39.3537 122.684 32.6817C132.852 26.6577 123.38 23.5937 117.812 23.6497C105.092 23.7883 93.2335 27.0817 82.2362 33.5297C80.5882 34.5003 79.2975 35.5297 78.3642 36.6177Z" stroke="#FFBA6A" stroke-width="2"/>
<path d="M80.0756 47.6946C80.069 46.7505 79.4137 45.8495 78.2538 45.19C77.094 44.5305 75.5246 44.1663 73.8909 44.1778C73.0819 44.1834 72.2816 44.2811 71.5355 44.4652C70.7894 44.6493 70.1122 44.9163 69.5425 45.2509C68.9728 45.5854 68.5218 45.981 68.2153 46.4151C67.9087 46.8492 67.7526 47.3132 67.7559 47.7807C67.7625 48.7249 68.4178 49.6258 69.5777 50.2853C70.7375 50.9449 72.3069 51.309 73.9406 51.2976C74.7496 51.2919 75.5499 51.1943 76.296 51.0101C77.0421 50.826 77.7194 50.5591 78.2891 50.2245C78.8587 49.8899 79.3097 49.4943 79.6163 49.0602C79.9228 48.6262 80.0789 48.1621 80.0756 47.6946Z" stroke="#FFBA6A" stroke-width="2"/>
<path d="M156.548 94.2177C151.572 93.2257 150.852 100.01 153.428 102.154C154.414 102.975 156.113 103.514 158.524 103.77C163.98 104.34 169.438 105.047 174.9 105.89C175.084 105.919 175.273 105.907 175.453 105.855C175.633 105.804 175.8 105.714 175.942 105.592C176.084 105.469 176.198 105.317 176.276 105.146C176.355 104.976 176.396 104.79 176.396 104.602C176.412 99.8817 160.372 94.9777 156.548 94.2177Z" stroke="#FCB477" stroke-width="2"/>
<path d="M150.308 132.042C154.244 145.514 169.724 144.674 176.548 134.266" stroke="#FFE9D5" stroke-width="2"/>
<path d="M176.548 134.266C177.129 131.935 178.441 130.367 180.484 129.562C180.518 129.548 180.547 129.525 180.568 129.495C180.59 129.466 180.603 129.431 180.606 129.395C180.609 129.359 180.603 129.323 180.587 129.29C180.571 129.257 180.547 129.229 180.516 129.21C179.775 128.735 179.407 128.079 179.412 127.242C179.414 127.073 179.47 126.91 179.571 126.777C179.672 126.645 179.813 126.549 179.972 126.506L181.332 126.122C181.625 126.039 181.877 125.851 182.041 125.595C182.206 125.339 182.271 125.032 182.225 124.732C182.178 124.431 182.024 124.158 181.79 123.963C181.557 123.768 181.26 123.665 180.956 123.674C180.519 123.69 180.108 123.836 179.724 124.114C179.463 124.3 179.252 124.255 179.092 123.978C175.529 117.791 170.367 114.487 163.604 114.066C152.924 113.402 147.14 122.29 150.308 132.042" stroke="#9F755D" stroke-width="2"/>
<path d="M176.548 134.266C178.367 126.858 176.007 121.631 169.468 118.586C168.994 118.367 168.911 118.468 169.22 118.89L171.356 121.794" stroke="#9E8A86" stroke-width="2"/>
<path d="M171.356 121.794L169.196 120.25C169.073 120.163 168.927 120.112 168.777 120.104C168.626 120.095 168.476 120.129 168.343 120.202C168.211 120.274 168.102 120.382 168.027 120.514C167.953 120.645 167.918 120.795 167.924 120.946L168.244 128.866" stroke="#6B3728" stroke-width="2"/>
<path d="M168.244 128.866C165.292 136.098 156.388 134.706 154.58 127.466" stroke="#883D24" stroke-width="2"/>
<path d="M154.58 127.466L154.428 126.514C154.385 126.247 154.228 126.106 153.956 126.09L153.444 126.066" stroke="#5E2D1D" stroke-width="2"/>
<path d="M153.444 126.066C153.183 125.095 153.185 124.181 153.452 123.322C153.467 123.265 153.461 123.203 153.436 123.149C153.41 123.095 153.367 123.051 153.313 123.027C153.259 123.003 153.199 122.999 153.144 123.016C153.089 123.034 153.042 123.071 153.012 123.122C151.369 125.901 150.468 128.874 150.308 132.042" stroke="#9E8A86" stroke-width="2"/>
<path d="M169.924 134.89C171.028 132.378 172.828 126.122 170.756 123.906C170.654 123.798 170.519 123.725 170.373 123.699C170.226 123.673 170.075 123.695 169.941 123.761C169.808 123.827 169.699 123.935 169.631 124.067C169.563 124.2 169.54 124.351 169.564 124.498C169.841 126.06 169.401 127.516 168.244 128.866" stroke="#B55E3D" stroke-width="2"/>
<path d="M153.468 132.506C154.065 131.002 154.262 129.476 154.06 127.93C154.033 127.716 154.118 127.572 154.316 127.498C154.401 127.466 154.489 127.455 154.58 127.466" stroke="#A85432" stroke-width="2"/>
<path d="M153.444 126.066C153.071 127.986 153.079 130.132 153.468 132.506" stroke="#BEA195" stroke-width="2"/>
<path d="M153.468 132.505C155.804 140.161 165.332 140.969 169.924 134.889" stroke="#E8B09C" stroke-width="2"/>
<path d="M169.924 134.89C172.724 130.698 173.201 126.332 171.356 121.794" stroke="#CBABA0" stroke-width="2"/>
<path d="M207.06 128.618C204.953 127.018 202.668 126.629 200.204 127.45C200.189 127.454 200.175 127.46 200.163 127.469C200.151 127.478 200.14 127.49 200.133 127.503C200.125 127.516 200.12 127.53 200.117 127.545C200.115 127.56 200.116 127.575 200.12 127.59C200.123 127.605 200.13 127.619 200.139 127.631C200.148 127.643 200.159 127.653 200.172 127.661C200.185 127.669 200.2 127.674 200.215 127.676C200.23 127.678 200.245 127.678 200.26 127.674C202.846 127.231 205.166 127.671 207.22 128.994C207.63 129.261 207.724 129.21 207.5 128.842C207.425 128.719 207.278 128.645 207.06 128.618Z" stroke="#F7BD95" stroke-width="2"/>
<path d="M208.468 130.29C209.108 131.762 210.228 132.786 210.844 134.586C210.849 134.594 210.858 134.601 210.867 134.604C210.877 134.608 210.887 134.608 210.897 134.606C210.906 134.603 210.915 134.597 210.921 134.589C210.928 134.581 210.931 134.572 210.932 134.562C210.644 132.78 209.876 131.319 208.628 130.178C208.61 130.163 208.587 130.155 208.563 130.154C208.539 130.153 208.516 130.159 208.497 130.173C208.479 130.186 208.466 130.204 208.46 130.226C208.455 130.247 208.458 130.27 208.468 130.29Z" stroke="#FFCC9F" stroke-width="2"/>
<path d="M184.558 149.182C184.533 148.432 184.218 147.7 183.633 147.026C183.047 146.352 182.201 145.75 181.143 145.254C180.085 144.759 178.836 144.379 177.468 144.137C176.099 143.895 174.637 143.796 173.166 143.845C171.695 143.894 170.244 144.09 168.894 144.422C167.545 144.754 166.324 145.215 165.301 145.78C164.278 146.344 163.474 147.001 162.934 147.712C162.394 148.424 162.129 149.176 162.154 149.925C162.179 150.675 162.493 151.408 163.079 152.082C163.665 152.756 164.511 153.358 165.569 153.853C166.627 154.349 167.875 154.728 169.244 154.97C170.613 155.212 172.074 155.311 173.545 155.263C175.016 155.214 176.468 155.018 177.818 154.686C179.167 154.354 180.388 153.892 181.411 153.328C182.433 152.763 183.237 152.106 183.777 151.395C184.317 150.684 184.583 149.932 184.558 149.182Z" stroke="#F6B595" stroke-width="2"/>
<path d="M103.644 95.1296C100.436 91.1296 78.3878 100.178 79.8918 105.45C79.9364 105.603 80.0345 105.734 80.1681 105.821C80.3017 105.908 80.4621 105.943 80.6199 105.922C86.5879 105.018 92.4839 104.138 98.4279 103.53C100.385 103.332 101.777 102.978 102.604 102.466C105.036 100.978 105.364 97.2816 103.644 95.1296Z" stroke="#FCBA7F" stroke-width="2"/>
<path d="M77.724 125.09C77.18 124.242 76.3934 123.791 75.364 123.738C75.2377 123.73 75.1115 123.754 74.9963 123.806C74.8811 123.858 74.7805 123.938 74.7032 124.038C74.6259 124.138 74.5742 124.256 74.5527 124.381C74.5313 124.505 74.5407 124.633 74.58 124.754L75.084 126.29C75.1056 126.358 75.1408 126.421 75.1875 126.476C75.2342 126.53 75.2915 126.574 75.3559 126.605C75.4202 126.637 75.4903 126.655 75.5619 126.658C75.6334 126.662 75.7049 126.651 75.772 126.626C76.492 126.354 77.0653 126.38 77.492 126.706" stroke="#B68B6F" stroke-width="2"/>
<path d="M77.4921 126.705L77.7401 129.497C77.7721 129.791 77.6708 129.847 77.4361 129.665C77.2761 129.537 77.1668 129.345 77.1081 129.089C77.0548 128.865 76.9454 128.833 76.7801 128.993L76.5321 129.241C76.3401 129.439 76.3534 129.623 76.5721 129.793L79.4521 132.057" stroke="#9F7B65" stroke-width="2"/>
<path d="M79.4521 132.058C81.6921 136.916 85.1988 139.932 89.9722 141.106C98.0202 143.074 105.204 139.242 106.364 130.61" stroke="#FFEFDD" stroke-width="2"/>
<path d="M106.364 130.61C108.324 118.802 100.804 111.682 89.6361 114.458C85.1801 115.57 78.1081 119.706 77.7241 125.09" stroke="#9F7B65" stroke-width="2"/>
<path d="M106.364 130.61C106.065 128.194 105.161 125.924 103.652 123.802" stroke="#9E8A86" stroke-width="2"/>
<path d="M103.652 123.802C102.431 124.858 102.058 125.756 102.532 126.498" stroke="#883D24" stroke-width="2"/>
<path d="M102.532 126.498L100.636 130.834" stroke="#8D543F" stroke-width="2"/>
<path d="M100.636 130.834C93.7801 139.762 83.2361 127.218 89.4761 117.962C89.6201 117.743 89.5721 117.679 89.3321 117.77L86.4121 118.834" stroke="#883D24" stroke-width="2"/>
<path d="M86.4118 118.834C81.4145 121.458 79.0945 125.866 79.4518 132.058" stroke="#9E8A86" stroke-width="2"/>
<path d="M77.4922 126.706L77.7242 125.09" stroke="#562618" stroke-width="2"/>
<path d="M100.636 130.834C101.34 131.004 101.866 130.746 102.212 130.058C102.863 128.788 102.97 127.602 102.532 126.498" stroke="#D67B54" stroke-width="2"/>
<path d="M103.652 123.802C103.988 129.73 104.228 137.314 96.4282 138.266C86.7002 139.45 82.2681 129.362 85.3081 121.29" stroke="#E8B09C" stroke-width="2"/>
<path d="M85.3081 121.29C86.5774 121.194 87.4254 120.575 87.8521 119.434C87.9588 119.156 87.8628 119.034 87.5641 119.066C87.2974 119.092 87.0495 119.191 86.8201 119.362" stroke="#A85432" stroke-width="2"/>
<path d="M86.8201 119.362C86.7721 119.01 86.6361 118.834 86.4121 118.834" stroke="#E8B09C" stroke-width="2"/>
<path d="M86.8201 119.362L85.3081 121.29" stroke="#BEA195" stroke-width="2"/>
<path d="M92.2521 149.319C92.2509 148.605 91.9734 147.898 91.4355 147.239C90.8976 146.58 90.1099 145.981 89.1173 145.478C88.1247 144.974 86.9466 144.576 85.6504 144.305C84.3542 144.034 82.9651 143.895 81.5626 143.898C80.1601 143.9 78.7716 144.043 77.4763 144.319C76.181 144.595 75.0043 144.997 74.0135 145.504C73.0226 146.011 72.237 146.612 71.7014 147.273C71.1659 147.934 70.8908 148.642 70.8921 149.356C70.8933 150.071 71.1708 150.778 71.7087 151.437C72.2466 152.096 73.0343 152.694 74.0269 153.198C75.0195 153.701 76.1976 154.1 77.4939 154.371C78.7901 154.642 80.1791 154.78 81.5816 154.778C82.9842 154.775 84.3727 154.632 85.668 154.357C86.9633 154.081 88.1399 153.678 89.1307 153.171C90.1216 152.664 90.9072 152.063 91.4428 151.402C91.9783 150.741 92.2534 150.033 92.2521 149.319Z" stroke="#F6BB9D" stroke-width="2"/>
<path d="M96.5639 119.218C94.8679 121.922 98.4919 123.002 100.3 122.634C100.563 122.579 100.813 122.472 101.035 122.319C101.257 122.166 101.446 121.971 101.591 121.743C101.736 121.516 101.835 121.262 101.881 120.996C101.927 120.73 101.92 120.457 101.86 120.194C101.26 117.586 98.2919 116.466 96.5639 119.218Z" stroke="#9E8A86" stroke-width="2"/>
<path d="M159.666 118.841C159.299 118.29 158.678 117.941 157.937 117.87C157.197 117.8 156.399 118.015 155.719 118.467C155.382 118.691 155.084 118.966 154.842 119.277C154.6 119.589 154.419 119.93 154.309 120.281C154.199 120.632 154.163 120.987 154.201 121.325C154.24 121.663 154.353 121.977 154.535 122.25C154.901 122.802 155.523 123.151 156.263 123.221C157.003 123.291 157.801 123.077 158.481 122.625C158.818 122.401 159.116 122.125 159.358 121.814C159.6 121.503 159.781 121.162 159.891 120.81C160.001 120.459 160.037 120.104 159.999 119.766C159.96 119.429 159.847 119.114 159.666 118.841Z" stroke="#9E8A86" stroke-width="2"/>
<path d="M180.404 33.6977C179.945 33.6497 179.465 33.4657 178.964 33.1457C178.724 32.9964 178.617 33.0604 178.644 33.3377C178.724 34.4577 174.436 33.8977 173.564 34.0337C157.367 36.5404 141.649 40.807 126.412 46.8337C112.343 52.0924 99.3294 58.4897 87.372 66.0257C70.748 76.4897 60.14 91.2817 55.548 110.402C54.756 113.69 54.612 117.554 54.204 121.082C52.588 120.516 51.012 120.364 49.476 120.626C45.204 101.858 43.964 82.9297 50.628 65.0417L52.252 60.8897C52.3587 60.6124 52.2814 60.5404 52.02 60.6737C51.764 60.7964 51.564 60.8497 51.42 60.8337C37.092 59.6657 24.26 68.8577 24.812 83.9937C24.816 84.0941 24.7965 84.1939 24.7552 84.2856C24.7139 84.3773 24.6519 84.4584 24.5738 84.5225C24.4957 84.5867 24.4038 84.6322 24.305 84.6556C24.2062 84.6791 24.1032 84.6798 24.004 84.6577C19.596 83.6577 16.044 85.4497 12.404 87.7137C12.3561 87.7445 12.3019 87.7643 12.2453 87.7716C12.1886 87.7789 12.1309 87.7737 12.076 87.7562C12.0212 87.7386 11.9706 87.7093 11.9278 87.6702C11.885 87.6311 11.8509 87.5831 11.828 87.5297C10.724 84.991 10.124 82.3297 10.028 79.5457C10.004 79.0737 9.80403 78.8577 9.42003 78.6577C9.18003 78.535 9.04937 78.607 9.02804 78.8737C9.01204 79.0924 8.95602 79.2897 8.86002 79.4657C7.36402 53.2257 34.028 35.2257 57.108 50.8817C57.3072 51.016 57.5508 51.0669 57.786 51.0235C58.0212 50.98 58.2289 50.8457 58.364 50.6497C84.18 13.3937 144.884 9.3537 180.404 33.6977ZM78.364 36.6177C75.172 40.3377 78.596 44.1377 82.564 44.3297C96.1 45.0017 111.436 39.3537 122.684 32.6817C132.852 26.6577 123.38 23.5937 117.812 23.6497C105.092 23.7884 93.2334 27.0817 82.236 33.5297C80.5881 34.5004 79.2974 35.5297 78.364 36.6177ZM80.0758 47.6947C80.0692 46.7505 79.4139 45.8496 78.2541 45.19C77.0942 44.5305 75.5248 44.1664 73.8911 44.1778C73.0822 44.1834 72.2819 44.2811 71.5358 44.4652C70.7897 44.6493 70.1124 44.9163 69.5427 45.2509C68.9731 45.5854 68.5221 45.9811 68.2155 46.4151C67.909 46.8492 67.7529 47.3132 67.7562 47.7807C67.7628 48.7249 68.4181 49.6258 69.5779 50.2854C70.7378 50.9449 72.3072 51.309 73.9409 51.2976C74.7498 51.292 75.5502 51.1943 76.2963 51.0102C77.0424 50.826 77.7196 50.5591 78.2893 50.2245C78.859 49.8899 79.31 49.4943 79.6165 49.0603C79.9231 48.6262 80.0791 48.1622 80.0758 47.6947Z" fill="#FEAF55"/>
<path d="M78.3642 36.6176C79.2975 35.5296 80.5882 34.5002 82.2362 33.5296C93.2335 27.0816 105.092 23.7882 117.812 23.6496C123.38 23.5936 132.852 26.6576 122.684 32.6816C111.436 39.3536 96.1002 45.0016 82.5642 44.3296C78.5962 44.1376 75.1722 40.3376 78.3642 36.6176Z" fill="#FFC47E"/>
<path d="M180.404 33.6975C187.919 38.4549 194.161 44.5349 199.132 51.9375C199.292 52.1722 199.484 52.2042 199.708 52.0335C209.908 44.2015 222.876 42.9135 233.604 50.5615C243.225 57.4149 247.551 67.3162 246.58 80.2655C245.556 80.8949 245.129 81.7935 245.3 82.9615C245.337 83.209 245.318 83.4606 245.244 83.6975L243.516 89.3055C243.473 89.4627 243.374 89.5985 243.237 89.6873C243.101 89.776 242.936 89.8113 242.775 89.7866C242.614 89.7619 242.468 89.6789 242.364 89.5533C242.26 89.4277 242.206 89.2684 242.212 89.1055V88.8895C242.212 88.6495 242.111 88.4655 241.908 88.3375C238.559 86.1295 234.983 84.3775 231.18 83.0815C230.929 82.9962 230.793 82.8229 230.772 82.5615C229.652 69.0175 218.028 59.8095 204.716 60.7295C204.295 60.7615 204.156 60.9749 204.3 61.3695L205.74 65.2575C211.364 79.7615 212.044 94.1455 209.244 109.466C208.812 113.316 207.713 116.868 205.948 120.122L202.996 120.586C203.372 100.45 192.988 82.8655 177.764 70.3215C173.62 66.9082 169.449 63.5375 165.252 60.2095C162.463 58.0015 160.449 55.1989 159.212 51.8015C159.122 51.5595 159.106 51.296 159.166 51.0442C159.226 50.7923 159.359 50.5632 159.548 50.3855L160.756 49.2415C161.033 48.9749 160.985 48.8869 160.612 48.9775C154.537 50.4229 148.617 52.2282 142.852 54.3935C141.641 53.7535 140.551 53.9402 139.58 54.9535C139.399 55.1402 139.308 55.1029 139.308 54.8415L139.316 54.6255C139.316 54.2575 139.145 54.1429 138.804 54.2815C137.924 54.6389 137.127 54.5589 136.412 54.0415C136.188 53.8815 136.063 53.6629 136.036 53.3855C135.892 52.0149 135.217 51.0335 134.012 50.4415C133.783 50.3295 133.625 50.1535 133.54 49.9135C133.049 48.5962 132.073 47.9349 130.612 47.9295C130.308 47.9295 130.087 47.7962 129.948 47.5295L129.516 46.6815C129.461 46.5727 129.372 46.4848 129.262 46.4314C129.152 46.378 129.028 46.3619 128.908 46.3855L126.412 46.8335C141.649 40.8069 157.367 36.5402 173.564 34.0335C174.436 33.8975 178.724 34.4575 178.644 33.3375C178.617 33.0602 178.724 32.9962 178.964 33.1455C179.465 33.4655 179.945 33.6495 180.404 33.6975Z" fill="#FEA243"/>
<path d="M73.941 51.2975C77.343 51.2738 80.0897 49.6607 80.076 47.6946C80.0623 45.7285 77.2933 44.1539 73.8913 44.1777C70.4893 44.2014 67.7426 45.8145 67.7563 47.7806C67.77 49.7467 70.539 51.3213 73.941 51.2975Z" fill="#FFC47E"/>
<path d="M142.852 54.3936L142.316 54.4896C142.081 54.527 141.977 54.6656 142.004 54.9056L142.036 55.1776C138.268 55.8096 133.812 58.4976 130.348 60.1776C121.332 64.5536 112.228 67.6976 103.1 71.3696C96.1161 74.1776 91.0841 77.3536 86.7721 82.8336C80.6121 90.6576 74.5401 97.719 68.5561 104.018C63.0201 109.85 58.8281 116.074 58.7001 123.986C58.6734 125.362 58.5828 126.74 58.4281 128.122C57.2761 125.45 55.8681 123.103 54.2041 121.082C54.6121 117.554 54.7561 113.69 55.5481 110.402C60.1401 91.2816 70.7481 76.4896 87.3721 66.0256C99.3294 58.4896 112.343 52.0923 126.412 46.8336L128.908 46.3856C129.028 46.362 129.152 46.3781 129.262 46.4315C129.372 46.4849 129.461 46.5728 129.516 46.6816L129.948 47.5296C130.087 47.7963 130.308 47.9296 130.612 47.9296C132.073 47.935 133.049 48.5963 133.54 49.9136C133.625 50.1536 133.783 50.3296 134.012 50.4416C135.217 51.0336 135.892 52.015 136.036 53.3856C136.063 53.663 136.188 53.8816 136.412 54.0416C137.127 54.559 137.924 54.639 138.804 54.2816C139.145 54.143 139.316 54.2576 139.316 54.6256L139.308 54.8416C139.308 55.103 139.399 55.1403 139.58 54.9536C140.551 53.9403 141.641 53.7536 142.852 54.3936Z" fill="#F89442"/>
<path d="M202.996 120.586C200.868 122.788 198.983 125.484 197.34 128.674C197.111 127.81 196.972 126.89 196.924 125.914C196.452 115.794 191.356 104.802 185.628 95.8415C173.964 77.6175 162.012 63.7935 142.036 55.1775L142.004 54.9055C141.977 54.6655 142.081 54.5268 142.316 54.4895L142.852 54.3935C148.617 52.2282 154.537 50.4228 160.612 48.9775C160.985 48.8868 161.033 48.9748 160.756 49.2415L159.548 50.3855C159.359 50.5632 159.226 50.7923 159.166 51.0441C159.106 51.296 159.122 51.5594 159.212 51.8015C160.449 55.1988 162.463 58.0015 165.252 60.2095C169.449 63.5375 173.62 66.9082 177.764 70.3215C192.988 82.8655 203.372 100.449 202.996 120.586Z" fill="#EF8035"/>
<path d="M142.036 55.1777C162.012 63.7937 173.964 77.6177 185.628 95.8417C191.356 104.802 196.452 115.794 196.924 125.914C196.972 126.89 197.111 127.81 197.34 128.674C197.495 129.255 197.343 129.586 196.884 129.666C196.771 129.688 196.654 129.668 196.554 129.611C196.454 129.554 196.378 129.462 196.34 129.354C195.068 125.818 194.26 121.826 193.004 118.682C187.588 105.17 178.548 93.3777 168.356 82.9217C160.729 75.0977 151.847 69.1431 141.708 65.0577C139.228 64.0577 133.116 66.0497 127.78 67.7697C118.489 70.2231 109.567 73.2577 101.012 76.8737C98.82 77.8017 96.4761 79.3217 95.0201 80.8737C90.764 85.4124 86.4974 89.9431 82.2201 94.4657C71.5561 105.738 59.3001 111.754 59.3321 129.322C59.3321 129.706 59.1827 129.778 58.8841 129.538C58.4307 129.186 58.2787 128.714 58.4281 128.122C58.5827 126.74 58.6734 125.362 58.7 123.986C58.828 116.074 63.02 109.85 68.556 104.018C74.54 97.7191 80.6121 90.6577 86.7721 82.8337C91.0841 77.3537 96.116 74.1777 103.1 71.3697C112.228 67.6977 121.332 64.5537 130.348 60.1777C133.812 58.4977 138.268 55.8097 142.036 55.1777Z" fill="#FEC393"/>
<path d="M50.6284 65.0416C46.9324 66.2522 43.9804 67.6416 41.7724 69.2096C31.3164 76.6576 29.7724 91.6976 36.3083 102.162C38.5884 105.81 43.2044 110.29 46.3164 114.722C46.8337 115.458 46.9324 116.37 46.6124 117.458C46.2497 118.706 46.4364 120.031 47.1724 121.434L44.4364 123.274C25.4924 115.786 11.1804 100.01 8.86035 79.4656C8.95635 79.2896 9.01237 79.0922 9.02837 78.8736C9.0497 78.6069 9.18036 78.5349 9.42036 78.6576C9.80436 78.8576 10.0044 79.0736 10.0284 79.5456C10.1244 82.3296 10.7244 84.9909 11.8284 87.5296C11.8513 87.583 11.8853 87.631 11.9281 87.6701C11.971 87.7092 12.0215 87.7385 12.0764 87.756C12.1312 87.7736 12.189 87.7788 12.2456 87.7715C12.3022 87.7642 12.3564 87.7444 12.4043 87.7136C16.0443 85.4496 19.5963 83.6576 24.0043 84.6576C24.1036 84.6797 24.2065 84.679 24.3053 84.6555C24.4041 84.6321 24.4961 84.5866 24.5741 84.5224C24.6522 84.4583 24.7143 84.3772 24.7556 84.2855C24.7969 84.1938 24.8163 84.094 24.8124 83.9936C24.2604 68.8576 37.0924 59.6656 51.4204 60.8336C51.5644 60.8496 51.7644 60.7962 52.0204 60.6736C52.2817 60.5402 52.359 60.6122 52.2523 60.8896L50.6284 65.0416Z" fill="#F89442"/>
<path d="M246.58 80.2656C243.844 100.042 230.356 115.394 211.972 123.042L205.948 120.122C207.713 116.868 208.812 113.316 209.244 109.466C209.628 109.871 210.065 110.154 210.556 110.314C210.801 110.394 211.025 110.354 211.228 110.194C217.436 105.266 221.892 99.6176 223.124 91.8416C225.116 79.2416 217.98 69.0896 205.74 65.2576L204.3 61.3696C204.156 60.9749 204.295 60.7616 204.716 60.7296C218.028 59.8096 229.652 69.0176 230.772 82.5616C230.793 82.8229 230.929 82.9963 231.18 83.0816C234.983 84.3776 238.559 86.1296 241.908 88.3376C242.111 88.4656 242.212 88.6496 242.212 88.8896V89.1056C242.206 89.2684 242.26 89.4278 242.364 89.5534C242.468 89.679 242.614 89.762 242.775 89.7867C242.936 89.8114 243.101 89.776 243.237 89.6873C243.374 89.5986 243.473 89.4628 243.516 89.3056L245.244 83.6976C245.318 83.4607 245.337 83.2091 245.3 82.9616C245.129 81.7936 245.556 80.8949 246.58 80.2656Z" fill="#F89442"/>
<path d="M197.34 128.674C198.983 125.484 200.868 122.788 202.996 120.586L205.948 120.122L211.972 123.042C217.868 131.482 217.524 141.802 209.516 148.522C208.524 149.359 207.594 150.135 206.724 150.85C202.164 151.692 197.82 151.436 193.692 150.082C193.442 150.002 193.25 150.071 193.116 150.29C192.252 151.687 191.42 153.106 190.62 154.546C180.58 172.61 163.716 183.01 143.492 187.722C138.548 188.698 133.551 189.218 128.5 189.282C127.679 185.02 127.684 180.996 128.516 177.21C140.516 175.626 147.73 169.151 150.156 157.786C150.652 155.442 149.956 153.722 147.268 153.93L128.156 154.674C128.77 152.247 128.788 149.922 128.212 147.698C133.108 147.916 135.415 145.855 135.132 141.514C135.132 138.17 130.444 136.498 128.124 134.698C127.9 134.522 127.788 134.29 127.788 134.002L127.78 67.7695C133.116 66.0495 139.228 64.0575 141.708 65.0575C151.847 69.1429 160.73 75.0975 168.356 82.9215C178.548 93.3775 187.588 105.17 193.004 118.682C194.26 121.826 195.068 125.818 196.34 129.354C196.378 129.462 196.454 129.553 196.554 129.611C196.654 129.668 196.771 129.687 196.884 129.666C197.343 129.586 197.495 129.255 197.34 128.674ZM156.548 94.2175C151.572 93.2255 150.852 100.01 153.428 102.154C154.415 102.975 156.114 103.514 158.524 103.77C163.98 104.34 169.439 105.047 174.9 105.89C175.085 105.918 175.274 105.907 175.454 105.855C175.633 105.804 175.8 105.714 175.942 105.591C176.084 105.469 176.199 105.317 176.277 105.146C176.355 104.975 176.396 104.79 176.396 104.602C176.412 99.8815 160.372 94.9775 156.548 94.2175ZM150.308 132.042C154.244 145.514 169.724 144.674 176.548 134.266C177.13 131.935 178.442 130.367 180.484 129.562C180.518 129.547 180.547 129.525 180.568 129.495C180.59 129.466 180.603 129.431 180.606 129.395C180.609 129.359 180.603 129.323 180.587 129.29C180.571 129.257 180.547 129.229 180.516 129.21C179.775 128.735 179.407 128.079 179.412 127.242C179.414 127.073 179.47 126.91 179.571 126.777C179.672 126.644 179.813 126.549 179.972 126.506L181.332 126.122C181.625 126.038 181.877 125.851 182.041 125.595C182.206 125.339 182.271 125.032 182.225 124.732C182.179 124.431 182.024 124.158 181.791 123.963C181.557 123.768 181.26 123.665 180.956 123.674C180.519 123.69 180.108 123.836 179.724 124.114C179.463 124.3 179.252 124.255 179.092 123.978C175.53 117.791 170.367 114.487 163.604 114.066C152.924 113.402 147.14 122.29 150.308 132.042ZM207.06 128.618C204.954 127.018 202.668 126.628 200.204 127.45C200.19 127.453 200.176 127.46 200.164 127.469C200.151 127.478 200.141 127.489 200.133 127.502C200.125 127.515 200.12 127.53 200.118 127.545C200.116 127.56 200.117 127.575 200.12 127.59C200.124 127.604 200.13 127.618 200.139 127.63C200.149 127.642 200.16 127.653 200.173 127.661C200.186 127.668 200.2 127.673 200.215 127.676C200.23 127.678 200.246 127.677 200.26 127.674C202.847 127.231 205.167 127.671 207.22 128.994C207.631 129.26 207.724 129.21 207.5 128.842C207.426 128.719 207.279 128.644 207.06 128.618ZM208.468 130.29C209.108 131.762 210.228 132.786 210.844 134.586C210.85 134.594 210.858 134.6 210.867 134.604C210.877 134.608 210.887 134.608 210.897 134.605C210.907 134.603 210.915 134.597 210.922 134.589C210.928 134.581 210.932 134.572 210.932 134.562C210.644 132.78 209.876 131.319 208.628 130.178C208.61 130.163 208.587 130.155 208.563 130.154C208.54 130.153 208.516 130.159 208.498 130.172C208.479 130.186 208.466 130.204 208.461 130.226C208.455 130.247 208.458 130.269 208.468 130.29ZM184.558 149.182C184.533 148.432 184.219 147.699 183.633 147.026C183.047 146.352 182.201 145.75 181.143 145.254C180.085 144.758 178.837 144.379 177.468 144.137C176.099 143.895 174.638 143.796 173.167 143.845C171.696 143.893 170.244 144.089 168.895 144.421C167.545 144.753 166.324 145.215 165.301 145.78C164.279 146.344 163.475 147.001 162.935 147.712C162.395 148.423 162.13 149.175 162.154 149.925C162.179 150.675 162.494 151.408 163.08 152.082C163.665 152.755 164.511 153.357 165.569 153.853C166.627 154.349 167.876 154.728 169.244 154.97C170.613 155.212 172.075 155.311 173.546 155.262C175.017 155.214 176.468 155.018 177.818 154.686C179.168 154.354 180.388 153.892 181.411 153.328C182.434 152.763 183.238 152.106 183.778 151.395C184.318 150.684 184.583 149.932 184.558 149.182Z" fill="#FFD4AB"/>
<path d="M50.6284 65.0414C43.9644 82.9294 45.2044 101.857 49.4764 120.625L47.1724 121.433C46.4364 120.031 46.2497 118.705 46.6124 117.457C46.9324 116.369 46.8337 115.457 46.3164 114.721C43.2044 110.289 38.5884 105.809 36.3084 102.161C29.7724 91.6974 31.3164 76.6574 41.7724 69.2094C43.9804 67.6414 46.9324 66.252 50.6284 65.0414Z" fill="#EF8035"/>
<path d="M205.741 65.2578C217.981 69.0898 225.117 79.2418 223.125 91.8418C221.893 99.6178 217.437 105.266 211.229 110.194C211.026 110.354 210.802 110.394 210.557 110.314C210.066 110.154 209.629 109.871 209.245 109.466C212.045 94.1458 211.365 79.7618 205.741 65.2578Z" fill="#EF8035"/>
<path d="M127.78 67.7695L127.788 134.002C127.788 134.29 127.9 134.522 128.124 134.698C130.444 136.498 135.132 138.17 135.132 141.514C132.748 145.906 126.692 146.97 124.084 142.218C124.045 142.142 123.982 142.083 123.905 142.048C123.828 142.013 123.742 142.005 123.659 142.025C123.576 142.045 123.501 142.092 123.447 142.159C123.392 142.225 123.36 142.308 123.356 142.394C123.271 145.514 124.89 147.282 128.212 147.698C128.788 149.922 128.77 152.247 128.156 154.674C121.89 154.759 115.551 154.354 109.14 153.458C107.615 153.538 106.778 154.079 106.628 155.082C106.319 157.108 106.671 159.386 107.684 161.914C111.1 170.418 119.476 176.698 128.516 177.21C127.684 180.996 127.679 185.02 128.5 189.282C123.711 189.234 119.202 188.762 114.972 187.866C93.0445 183.242 73.8125 170.634 63.7165 150.562C63.5885 150.311 63.3911 150.223 63.1245 150.298C58.7991 151.519 54.3351 151.556 49.7325 150.41C47.4711 148.991 45.6178 147.356 44.1725 145.506C40.4071 140.695 39.4791 135.212 41.3884 129.058C41.8844 127.447 42.9005 125.519 44.4365 123.274L47.1725 121.434L49.4765 120.626C51.0125 120.364 52.5885 120.516 54.2045 121.082C55.8685 123.103 57.2765 125.45 58.4285 128.122C58.2791 128.714 58.4311 129.186 58.8845 129.538C59.1831 129.778 59.3325 129.706 59.3325 129.322C59.3005 111.754 71.5565 105.738 82.2205 94.4655C86.4978 89.9429 90.7645 85.4122 95.0205 80.8735C96.4765 79.3215 98.8205 77.8015 101.012 76.8735C109.567 73.2575 118.49 70.2229 127.78 67.7695ZM103.644 95.1295C100.436 91.1295 78.3884 100.178 79.8924 105.45C79.937 105.602 80.0351 105.734 80.1687 105.821C80.3023 105.908 80.4627 105.943 80.6205 105.922C86.5885 105.018 92.4845 104.138 98.4285 103.53C100.386 103.332 101.778 102.978 102.604 102.466C105.036 100.978 105.364 97.2815 103.644 95.1295ZM77.7245 125.09C77.1805 124.242 76.3938 123.791 75.3645 123.738C75.2382 123.73 75.1119 123.753 74.9967 123.806C74.8815 123.858 74.7809 123.938 74.7036 124.038C74.6263 124.138 74.5746 124.256 74.5532 124.381C74.5317 124.505 74.5411 124.633 74.5805 124.754L75.0845 126.29C75.106 126.358 75.1412 126.421 75.1879 126.475C75.2347 126.53 75.2919 126.574 75.3563 126.605C75.4207 126.637 75.4908 126.655 75.5623 126.658C75.6339 126.662 75.7054 126.651 75.7725 126.626C76.4925 126.354 77.0658 126.38 77.4924 126.706L77.7404 129.498C77.7724 129.791 77.6711 129.847 77.4365 129.666C77.2765 129.538 77.1671 129.346 77.1085 129.09C77.0551 128.866 76.9458 128.834 76.7805 128.994L76.5325 129.242C76.3405 129.439 76.3538 129.623 76.5725 129.794L79.4524 132.058C81.6924 136.916 85.1991 139.932 89.9725 141.106C98.0205 143.074 105.204 139.242 106.364 130.61C108.324 118.802 100.804 111.682 89.6365 114.458C85.1805 115.57 78.1085 119.706 77.7245 125.09ZM92.2524 149.319C92.2512 148.604 91.9737 147.898 91.4358 147.239C90.898 146.579 90.1102 145.981 89.1176 145.478C88.125 144.974 86.947 144.576 85.6507 144.304C84.3545 144.033 82.9655 143.895 81.5629 143.898C80.1604 143.9 78.7719 144.043 77.4766 144.319C76.1813 144.594 75.0047 144.997 74.0138 145.504C73.023 146.011 72.2373 146.612 71.7018 147.273C71.1662 147.934 70.8912 148.642 70.8924 149.356C70.8937 150.071 71.1712 150.777 71.709 151.437C72.2469 152.096 73.0346 152.694 74.0273 153.197C75.0199 153.701 76.198 154.099 77.4942 154.371C78.7904 154.642 80.1795 154.78 81.582 154.778C82.9845 154.775 84.373 154.632 85.6683 154.356C86.9636 154.081 88.1402 153.678 89.1311 153.171C90.1219 152.664 90.9076 152.063 91.4431 151.402C91.9787 150.741 92.2537 150.033 92.2524 149.319Z" fill="#FFE0BC"/>
<path d="M79.8923 105.45C78.3883 100.178 100.436 91.1299 103.644 95.1299C105.364 97.2819 105.036 100.978 102.604 102.466C101.778 102.978 100.386 103.333 98.4284 103.53C92.4844 104.138 86.5884 105.018 80.6204 105.922C80.4626 105.944 80.3022 105.908 80.1686 105.821C80.035 105.735 79.9369 105.603 79.8923 105.45Z" fill="#F89442"/>
<path d="M153.428 102.154C150.852 100.01 151.572 93.2259 156.548 94.2179C160.372 94.9779 176.412 99.8819 176.396 104.602C176.396 104.79 176.355 104.976 176.277 105.147C176.199 105.318 176.084 105.469 175.942 105.592C175.8 105.714 175.633 105.804 175.454 105.856C175.274 105.907 175.085 105.919 174.9 105.89C169.439 105.047 163.98 104.341 158.524 103.77C156.114 103.514 154.415 102.975 153.428 102.154Z" fill="#F89442"/>
<path d="M106.364 130.61C106.065 128.194 105.161 125.925 103.652 123.802C102.431 124.858 102.057 125.757 102.532 126.498L100.636 130.834C93.7801 139.762 83.2361 127.218 89.4761 117.962C89.6201 117.743 89.5721 117.679 89.3321 117.77L86.4121 118.834C81.4148 121.458 79.0948 125.866 79.4521 132.058L76.5721 129.794C76.3534 129.623 76.3401 129.439 76.5321 129.242L76.7801 128.994C76.9454 128.834 77.0548 128.866 77.1081 129.09C77.1668 129.346 77.2761 129.538 77.4361 129.666C77.6708 129.847 77.7721 129.791 77.7401 129.498L77.4921 126.706L77.7241 125.09C78.1081 119.706 85.1801 115.57 89.6361 114.458C100.804 111.682 108.324 118.802 106.364 130.61ZM96.5641 119.218C94.8681 121.922 98.4921 123.002 100.3 122.634C100.564 122.579 100.814 122.472 101.035 122.319C101.257 122.166 101.446 121.971 101.591 121.744C101.736 121.516 101.835 121.262 101.881 120.996C101.927 120.73 101.92 120.457 101.86 120.194C101.26 117.586 98.2921 116.466 96.5641 119.218Z" fill="#3E160E"/>
<path d="M176.548 134.266C178.367 126.858 176.007 121.631 169.468 118.586C168.993 118.367 168.911 118.468 169.22 118.89L171.356 121.794L169.196 120.25C169.073 120.163 168.927 120.112 168.777 120.104C168.626 120.095 168.476 120.129 168.344 120.202C168.211 120.274 168.102 120.382 168.028 120.514C167.953 120.645 167.918 120.795 167.924 120.946L168.244 128.866C165.292 136.098 156.388 134.706 154.58 127.466L154.428 126.514C154.385 126.247 154.228 126.106 153.956 126.09L153.444 126.066C153.183 125.095 153.185 124.18 153.452 123.322C153.467 123.264 153.462 123.203 153.436 123.149C153.41 123.094 153.367 123.051 153.313 123.027C153.259 123.002 153.199 122.998 153.144 123.016C153.089 123.033 153.042 123.071 153.012 123.122C151.369 125.9 150.468 128.874 150.308 132.042C147.14 122.29 152.924 113.402 163.604 114.066C170.367 114.487 175.529 117.791 179.092 123.978C179.252 124.255 179.463 124.3 179.724 124.114C180.108 123.836 180.519 123.69 180.956 123.674C181.26 123.665 181.557 123.768 181.79 123.963C182.024 124.157 182.178 124.431 182.225 124.732C182.271 125.032 182.206 125.339 182.041 125.595C181.877 125.851 181.625 126.038 181.332 126.122L179.972 126.506C179.813 126.549 179.672 126.644 179.571 126.777C179.47 126.91 179.414 127.073 179.412 127.242C179.407 128.079 179.775 128.735 180.516 129.21C180.547 129.229 180.571 129.257 180.587 129.29C180.603 129.323 180.609 129.359 180.606 129.395C180.603 129.431 180.59 129.466 180.568 129.495C180.547 129.525 180.518 129.547 180.484 129.562C178.441 130.367 177.129 131.935 176.548 134.266ZM159.666 118.841C159.299 118.29 158.678 117.94 157.937 117.87C157.197 117.8 156.399 118.015 155.719 118.467C155.382 118.69 155.084 118.966 154.842 119.277C154.6 119.588 154.419 119.929 154.309 120.281C154.199 120.632 154.163 120.987 154.201 121.325C154.24 121.663 154.353 121.977 154.535 122.25C154.901 122.801 155.523 123.151 156.263 123.221C157.003 123.291 157.801 123.077 158.481 122.624C158.818 122.401 159.116 122.125 159.358 121.814C159.6 121.503 159.781 121.162 159.891 120.81C160.001 120.459 160.037 120.104 159.999 119.766C159.96 119.428 159.847 119.114 159.666 118.841Z" fill="#3E160E"/>
<path d="M96.5644 119.218C98.2924 116.466 101.26 117.586 101.86 120.194C101.921 120.457 101.928 120.73 101.882 120.996C101.835 121.262 101.737 121.516 101.592 121.743C101.446 121.971 101.257 122.166 101.036 122.319C100.814 122.472 100.564 122.579 100.3 122.634C98.4924 123.002 94.8684 121.922 96.5644 119.218Z" fill="#FEFDFE"/>
<path d="M100.636 130.834C101.34 131.004 101.865 130.746 102.212 130.058C102.863 128.788 102.969 127.602 102.532 126.498C102.057 125.756 102.431 124.858 103.652 123.802C103.988 129.73 104.228 137.314 96.4282 138.266C86.7002 139.45 82.2681 129.362 85.3081 121.29C86.5775 121.194 87.4255 120.575 87.8521 119.434C87.9588 119.156 87.8628 119.034 87.5641 119.066C87.2975 119.092 87.0495 119.191 86.8201 119.362C86.7721 119.01 86.6361 118.834 86.4121 118.834L89.3322 117.77C89.5722 117.679 89.6202 117.743 89.4762 117.962C83.2362 127.218 93.7802 139.762 100.636 130.834Z" fill="#D16339"/>
<path d="M158.481 122.625C159.898 121.683 160.428 119.989 159.665 118.841C158.903 117.693 157.136 117.525 155.719 118.467C154.302 119.408 153.772 121.102 154.535 122.25C155.297 123.398 157.064 123.566 158.481 122.625Z" fill="#FEFDFE"/>
<path d="M176.548 134.265C169.724 144.673 154.244 145.513 150.308 132.041C150.468 128.873 151.369 125.9 153.012 123.121C153.042 123.071 153.089 123.033 153.144 123.016C153.199 122.998 153.259 123.002 153.313 123.027C153.367 123.051 153.41 123.094 153.436 123.149C153.461 123.203 153.467 123.264 153.452 123.321C153.185 124.18 153.183 125.095 153.444 126.065C153.071 127.985 153.079 130.132 153.468 132.505C155.804 140.161 165.332 140.969 169.924 134.889C172.724 130.697 173.201 126.332 171.356 121.793L169.22 118.889C168.911 118.468 168.993 118.367 169.468 118.585C176.007 121.631 178.367 126.857 176.548 134.265Z" fill="#FEFDFE"/>
<path d="M86.4123 118.834C86.6363 118.834 86.7723 119.01 86.8203 119.362L85.3083 121.29C82.2683 129.362 86.7003 139.45 96.4283 138.266C104.228 137.314 103.988 129.73 103.652 123.802C105.162 125.924 106.066 128.194 106.364 130.61C105.204 139.242 98.0203 143.074 89.9723 141.106C85.199 139.932 81.6923 136.916 79.4523 132.058C79.0949 125.866 81.4149 121.458 86.4123 118.834Z" fill="#FEFDFE"/>
<path d="M85.3081 121.29L86.8201 119.362C87.0495 119.191 87.2974 119.093 87.5641 119.066C87.8628 119.034 87.9588 119.157 87.8521 119.434C87.4254 120.575 86.5774 121.194 85.3081 121.29Z" fill="#7E442B"/>
<path d="M171.356 121.794C173.201 126.333 172.724 130.698 169.924 134.89C171.028 132.378 172.828 126.122 170.756 123.906C170.654 123.798 170.519 123.725 170.372 123.699C170.226 123.673 170.075 123.695 169.941 123.761C169.808 123.827 169.699 123.935 169.631 124.067C169.563 124.2 169.54 124.351 169.564 124.498C169.841 126.06 169.401 127.516 168.244 128.866L167.924 120.946C167.918 120.795 167.953 120.645 168.027 120.514C168.102 120.382 168.211 120.274 168.343 120.202C168.476 120.13 168.626 120.096 168.777 120.104C168.927 120.113 169.073 120.163 169.196 120.25L171.356 121.794Z" fill="#985841"/>
<path d="M77.7245 125.09L77.4925 126.706C77.0658 126.38 76.4925 126.354 75.7725 126.626C75.7054 126.651 75.6339 126.662 75.5624 126.658C75.4908 126.655 75.4207 126.637 75.3564 126.605C75.292 126.574 75.2347 126.53 75.188 126.476C75.1413 126.421 75.1061 126.358 75.0845 126.29L74.5805 124.754C74.5412 124.633 74.5318 124.505 74.5532 124.381C74.5747 124.256 74.6264 124.138 74.7037 124.038C74.781 123.938 74.8816 123.858 74.9968 123.806C75.112 123.754 75.2382 123.73 75.3645 123.738C76.3938 123.791 77.1805 124.242 77.7245 125.09Z" fill="#6D3521"/>
<path d="M169.924 134.89C165.332 140.97 155.804 140.162 153.468 132.506C154.066 131.002 154.263 129.476 154.06 127.93C154.034 127.716 154.119 127.572 154.316 127.498C154.402 127.466 154.49 127.455 154.58 127.466C156.388 134.706 165.292 136.098 168.244 128.866C169.402 127.516 169.842 126.06 169.564 124.498C169.54 124.351 169.564 124.2 169.631 124.067C169.699 123.934 169.808 123.827 169.941 123.761C170.075 123.695 170.226 123.673 170.373 123.699C170.519 123.725 170.654 123.797 170.756 123.906C172.828 126.122 171.028 132.378 169.924 134.89Z" fill="#D16339"/>
<path d="M153.444 126.066L153.956 126.09C154.228 126.106 154.385 126.247 154.428 126.514L154.58 127.466C154.489 127.455 154.401 127.466 154.316 127.498C154.119 127.572 154.033 127.716 154.06 127.93C154.263 129.476 154.065 131.002 153.468 132.506C153.079 130.132 153.071 127.986 153.444 126.066Z" fill="#7E442B"/>
<path d="M102.532 126.498C102.97 127.602 102.863 128.788 102.212 130.058C101.866 130.746 101.34 131.004 100.636 130.834L102.532 126.498Z" fill="#DB926F"/>
<path d="M207.061 128.618C207.279 128.645 207.426 128.719 207.501 128.842C207.725 129.21 207.631 129.261 207.221 128.994C205.167 127.671 202.847 127.231 200.261 127.674C200.246 127.678 200.231 127.678 200.216 127.676C200.201 127.674 200.186 127.669 200.173 127.661C200.16 127.653 200.149 127.643 200.14 127.631C200.131 127.618 200.124 127.605 200.121 127.59C200.117 127.575 200.116 127.56 200.118 127.545C200.121 127.53 200.126 127.515 200.134 127.502C200.141 127.489 200.152 127.478 200.164 127.469C200.176 127.46 200.19 127.454 200.205 127.45C202.669 126.629 204.954 127.018 207.061 128.618Z" fill="#EEA57F"/>
<path d="M210.844 134.586C210.228 132.786 209.108 131.762 208.468 130.29C208.458 130.27 208.455 130.247 208.461 130.226C208.466 130.205 208.479 130.186 208.498 130.173C208.517 130.16 208.54 130.153 208.564 130.154C208.587 130.155 208.61 130.163 208.628 130.178C209.876 131.319 210.644 132.781 210.932 134.562C210.932 134.572 210.928 134.582 210.922 134.59C210.916 134.597 210.907 134.603 210.897 134.606C210.887 134.608 210.877 134.608 210.868 134.604C210.858 134.601 210.85 134.594 210.844 134.586Z" fill="#FEC393"/>
<path d="M135.132 141.514C135.415 145.855 133.108 147.916 128.212 147.698C124.89 147.282 123.271 145.514 123.356 142.394C123.36 142.308 123.392 142.226 123.447 142.159C123.501 142.093 123.576 142.046 123.659 142.026C123.741 142.006 123.828 142.014 123.905 142.048C123.982 142.083 124.045 142.143 124.084 142.218C126.692 146.97 132.748 145.906 135.132 141.514Z" fill="#FEC393"/>
<path d="M81.5818 154.778C87.4802 154.767 92.2575 152.324 92.2523 149.319C92.247 146.315 87.4612 143.887 81.5628 143.898C75.6644 143.908 70.8871 146.352 70.8923 149.356C70.8976 152.361 75.6834 154.788 81.5818 154.778Z" fill="#EC957E"/>
<path d="M173.545 155.263C179.732 155.057 184.662 152.335 184.558 149.182C184.453 146.029 179.353 143.64 173.167 143.845C166.98 144.05 162.05 146.772 162.154 149.925C162.259 153.078 167.359 155.468 173.545 155.263Z" fill="#EC957E"/>
<path d="M206.724 150.85C200.463 168.519 189.249 181.756 173.084 190.562C171.671 191.33 170.18 191.908 168.612 192.298C168.172 192.538 159.692 190.642 158.276 190.522C158.015 190.495 157.839 190.607 157.748 190.858C153.62 202.082 143.124 210.93 130.804 210.682C116.644 210.399 106.212 204.143 99.5079 191.914C98.6519 190.346 93.2279 191.842 91.8199 192.122C88.0279 191.77 85.4359 191.21 84.0439 190.442C68.1159 181.69 55.3799 168.146 49.7319 150.41C54.3346 151.556 58.7986 151.519 63.1239 150.298C63.3906 150.223 63.5879 150.311 63.7159 150.562C73.8119 170.634 93.0439 183.242 114.972 187.866L106.7 189.138C106.563 189.158 106.434 189.212 106.323 189.295C106.212 189.377 106.124 189.486 106.066 189.612C106.008 189.737 105.982 189.875 105.991 190.013C106 190.151 106.043 190.285 106.116 190.402C110.836 198.034 122.188 201.73 130.596 201.994C140.447 202.303 147.969 198.458 153.164 190.458C153.196 190.41 153.216 190.354 153.221 190.297C153.227 190.239 153.219 190.181 153.197 190.127C153.175 190.072 153.14 190.024 153.095 189.986C153.051 189.947 152.997 189.92 152.94 189.906L143.492 187.722C163.716 183.01 180.58 172.61 190.62 154.546C191.42 153.106 192.252 151.687 193.116 150.29C193.249 150.071 193.441 150.002 193.692 150.082C197.82 151.436 202.164 151.692 206.724 150.85Z" fill="#EF8035"/>
<path d="M128.156 154.674L147.268 153.93C137.692 162.938 118.58 161.882 109.14 153.458C115.551 154.354 121.889 154.759 128.156 154.674Z" fill="#FEFDFE"/>
<path d="M109.14 153.458C118.58 161.882 137.692 162.938 147.268 153.93C149.956 153.722 150.652 155.442 150.156 157.786C147.729 169.151 140.516 175.626 128.516 177.21C119.476 176.698 111.1 170.418 107.684 161.914C106.671 159.386 106.319 157.108 106.628 155.082C106.777 154.079 107.615 153.538 109.14 153.458Z" fill="#D56860"/>
<path d="M143.492 187.722L152.94 189.906C152.998 189.92 153.051 189.947 153.095 189.986C153.14 190.024 153.175 190.073 153.197 190.127C153.219 190.181 153.227 190.239 153.222 190.297C153.216 190.355 153.196 190.41 153.164 190.458C147.97 198.458 140.447 202.303 130.596 201.994C122.188 201.73 110.836 198.034 106.116 190.402C106.043 190.285 106 190.151 105.991 190.013C105.983 189.875 106.008 189.737 106.066 189.612C106.124 189.487 106.213 189.378 106.323 189.295C106.434 189.212 106.563 189.158 106.7 189.138L114.972 187.866C119.202 188.762 123.711 189.234 128.5 189.282C133.551 189.218 138.548 188.698 143.492 187.722Z" fill="#FEC393"/>
<path d="M168.612 192.298C168.602 192.378 168.599 192.455 168.604 192.53C168.62 192.711 168.714 192.826 168.884 192.874C176.58 195.034 183.796 198.343 190.532 202.802C173.388 217.906 150.684 224.426 128.204 223.93C107.452 223.474 84.7403 217.378 69.2363 202.69C76.1483 197.938 83.6763 194.415 91.8203 192.122C93.2283 191.842 98.6523 190.346 99.5083 191.914C106.212 204.143 116.644 210.399 130.804 210.682C143.124 210.93 153.62 202.082 157.748 190.858C157.839 190.607 158.015 190.495 158.276 190.522C159.692 190.642 168.172 192.538 168.612 192.298Z" fill="#FEA243"/>
<path d="M69.2362 202.69C84.7402 217.378 107.452 223.474 128.204 223.93C150.684 224.426 173.388 217.906 190.532 202.802L197.42 206.354C197.676 206.487 197.711 206.663 197.524 206.882C182.732 224.146 163.02 234.274 140.492 236.242C110.711 238.844 85.2202 229.202 64.0202 207.314C63.4549 206.732 63.5162 206.228 64.2042 205.802L69.2362 202.69Z" fill="#D1DEDE"/>
</svg>
